<?xml version="1.0" encoding="utf-8"?>
<!-- Generator: Adobe Illustrator 19.1.0, SVG Export Plug-In . SVG Version: 6.00 Build 0)  -->
<svg version="1.1" id="Ebene_1" xmlns="http://www.w3.org/2000/svg" xmlns:xlink="http://www.w3.org/1999/xlink" x="0px" y="0px" viewBox="0 0 1026 371" style="enable-background:new 0 0 1026 371;" xml:space="preserve">
<style type="text/css">

	.st0{clip-path:url(#SVGID_2_);}
	.st2{clip-path:url(#SVGID_4_);}

	.st0 .st1 {
		fill:#3B3C4A;
		transform: translate(25px, 0px);
  		animation: moveLeft 1.5s;
  		animation-fill-mode: both;
	}

	.st2 .st1 {
		fill:#3B3C4A;
		transform: translate(-25px, 0px);
  		animation: moveRight 1.7s;
  		animation-fill-mode: both;
	}

	@keyframes moveLeft {
	  0% {
	    transform: translate(45px,0px);
	  }
	  10% {
	    transform: translate(30px,0px);
	  }
	  30% {
	    transform: translate(-50px,0px);
	  }
	  100% {
	    transform: translate(-10px,0px);
	  }
	}

	@keyframes moveRight {
	  0% {
	    transform: translate(-25px,0px);
	  }
	  10% {
	    transform: translate(-40px,0px);
	  }
	  30% {
	    transform: translate(50px,0px);
	  }
	    100% {
	    transform: translate(10px,0px);
	  }
	}

</style>
<g>
	<defs>
		<polygon id="SVGID_1_" points="0,371 1030,0 0,0 		"/>
	</defs>
	<clipPath id="SVGID_2_">
		<use xlink:href="#SVGID_1_"  style="overflow:visible;"/>
	</clipPath>
	<g class="st0">
		<path class="st1" d="M143.9,15.1l58.6,156.7h-35.8l-11.9-34.9H96.3L84,171.8H49.3l59.3-156.7H143.9z M145.9,111.2l-19.8-57.5h-0.4
			l-20.4,57.5H145.9z"/>
		<path class="st1" d="M242.9,133.1c1.9,3.7,4.4,6.6,7.6,8.9c3.1,2.3,6.8,4,11.1,5c4.2,1.1,8.6,1.6,13.2,1.6c3.1,0,6.4-0.3,9.9-0.8
			c3.5-0.5,6.8-1.5,9.9-3c3.1-1.5,5.6-3.5,7.7-6c2-2.6,3.1-5.8,3.1-9.8c0-4.2-1.4-7.7-4.1-10.3c-2.7-2.6-6.3-4.8-10.6-6.6
			c-4.4-1.8-9.4-3.3-14.9-4.6c-5.6-1.3-11.2-2.8-16.9-4.4c-5.9-1.5-11.6-3.3-17.1-5.4c-5.6-2.1-10.5-4.9-14.9-8.2
			c-4.4-3.4-7.9-7.6-10.6-12.6c-2.7-5-4.1-11.2-4.1-18.3c0-8,1.7-15,5.2-21c3.4-5.9,7.9-10.9,13.5-14.8c5.6-3.9,11.9-6.9,18.9-8.8
			c7-1.9,14-2.9,21.1-2.9c8.2,0,16.1,0.9,23.6,2.7c7.5,1.8,14.2,4.8,20.1,8.9c5.9,4.1,10.5,9.3,13.9,15.7c3.4,6.4,5.2,14.1,5.2,23.2
			H300c-0.3-4.7-1.3-8.6-3-11.6c-1.7-3.1-3.9-5.5-6.7-7.2c-2.8-1.8-6-3-9.5-3.7c-3.6-0.7-7.5-1.1-11.7-1.1c-2.8,0-5.6,0.3-8.3,0.9
			c-2.8,0.6-5.3,1.6-7.6,3.1c-2.3,1.5-4.1,3.3-5.6,5.5c-1.5,2.2-2.2,5-2.2,8.3c0,3.1,0.6,5.6,1.8,7.5c1.2,1.9,3.5,3.7,6.9,5.3
			c3.4,1.6,8.2,3.2,14.3,4.8c6.1,1.6,14,3.7,23.8,6.1c2.9,0.6,7,1.6,12.2,3.2c5.2,1.5,10.4,4,15.5,7.4c5.1,3.4,9.5,7.9,13.3,13.5
			c3.7,5.6,5.6,12.8,5.6,21.6c0,7.2-1.4,13.8-4.2,20c-2.8,6.1-6.9,11.4-12.4,15.9c-5.5,4.5-12.3,7.9-20.4,10.4
			c-8.1,2.5-17.5,3.7-28.2,3.7c-8.6,0-17-1.1-25.1-3.2c-8.1-2.1-15.3-5.4-21.5-10c-6.2-4.5-11.2-10.3-14.8-17.3
			c-3.7-7-5.4-15.4-5.3-25h33.4C240.1,125,241,129.5,242.9,133.1z"/>
		<path class="st1" d="M432.5,15.1c9.8,0,18.1,1.4,25,4.3c6.9,2.9,12.5,6.6,16.8,11.3c4.3,4.7,7.5,10,9.4,16c2,6,3,12.2,3,18.7
			c0,6.3-1,12.5-3,18.5c-2,6.1-5.1,11.4-9.4,16.1c-4.3,4.7-9.9,8.5-16.8,11.3c-6.9,2.9-15.2,4.3-25,4.3h-36.2v56.2h-34.5V15.1H432.5
			z M423,88.8c4,0,7.8-0.3,11.4-0.9c3.7-0.6,6.9-1.7,9.7-3.4c2.8-1.7,5-4.1,6.7-7.1c1.7-3.1,2.5-7.1,2.5-12.1c0-5-0.8-9-2.5-12.1
			c-1.7-3.1-3.9-5.4-6.7-7.1c-2.8-1.7-6-2.8-9.7-3.4c-3.7-0.6-7.5-0.9-11.4-0.9h-26.8v47H423z"/>
		<path class="st1" d="M516.4,138v33.8h-34.5V138H516.4z"/>
		<path class="st1" d="M581.3,15.1l65.4,105.1h0.4V15.1h32.3v156.7H645L579.8,66.8h-0.4v104.9h-32.3V15.1H581.3z"/>
		<path class="st1" d="M828.3,15.1v29h-82.7v33.6h75.9v26.8h-75.9v38.4h84.5v29h-119V15.1H828.3z"/>
		<path class="st1" d="M843.9,44v-29h128.4v29h-47v127.7h-34.5V44H843.9z"/>
		<path class="st1" d="M94.3,198v60.1h63.4V198h34.5v156.7h-34.5v-67.6H94.3v67.6H59.9V198H94.3z"/>
		<path class="st1" d="M302.9,198l58.6,156.7h-35.8l-11.9-34.9h-58.6L243,354.7h-34.7L267.6,198H302.9z M304.9,294.1l-19.8-57.5
			h-0.4l-20.4,57.5H304.9z"/>
		<path class="st1" d="M470.4,239.8c-2.1-3.3-4.6-6.2-7.7-8.7c-3.1-2.5-6.5-4.4-10.4-5.8c-3.9-1.4-7.9-2.1-12.2-2.1
			c-7.8,0-14.3,1.5-19.8,4.5c-5.4,3-9.8,7-13.2,12.1c-3.4,5-5.8,10.8-7.4,17.2c-1.5,6.4-2.3,13.1-2.3,20c0,6.6,0.8,13,2.3,19.2
			c1.5,6.2,4,11.8,7.4,16.8c3.4,5,7.8,9,13.2,12c5.4,3,12,4.5,19.8,4.5c10.5,0,18.8-3.2,24.7-9.7c5.9-6.4,9.5-14.9,10.9-25.5H509
			c-0.9,9.8-3.1,18.7-6.8,26.6c-3.7,7.9-8.5,14.6-14.5,20.2c-6,5.6-13,9.8-21.1,12.7c-8,2.9-16.9,4.4-26.6,4.4
			c-12,0-22.8-2.1-32.4-6.3c-9.6-4.2-17.7-9.9-24.3-17.2c-6.6-7.3-11.6-15.9-15.1-25.8c-3.5-9.9-5.3-20.5-5.3-31.9
			c0-11.7,1.8-22.6,5.3-32.6c3.5-10,8.6-18.8,15.1-26.2c6.6-7.5,14.7-13.3,24.3-17.6c9.6-4.2,20.4-6.4,32.4-6.4
			c8.6,0,16.8,1.2,24.5,3.7c7.7,2.5,14.6,6.1,20.6,10.9c6.1,4.8,11.1,10.6,15,17.7c4,7,6.4,15.1,7.5,24.1h-33.4
			C473.8,246.7,472.5,243.1,470.4,239.8z"/>
		<path class="st1" d="M567.2,198v65l61.2-65h43l-61.2,61.9l67.2,94.8h-43.2l-47.2-70.5l-19.8,20v50.5h-34.5V198H567.2z"/>
		<path class="st1" d="M810.7,198v29h-82.7v33.6h75.9v26.8h-75.9v38.4h84.5v29h-119V198H810.7z"/>
		<path class="st1" d="M922.2,198c7,0,13.3,1.1,19,3.4c5.6,2.3,10.5,5.4,14.5,9.3c4,4,7.1,8.5,9.2,13.7c2.1,5.2,3.2,10.8,3.2,16.8
			c0,9.2-1.9,17.2-5.8,23.9c-3.9,6.7-10.2,11.9-19,15.4v0.4c4.2,1.2,7.8,3,10.5,5.4s5,5.3,6.8,8.6c1.8,3.3,3,6.9,3.8,10.9
			c0.8,4,1.4,7.9,1.6,11.9c0.1,2.5,0.3,5.4,0.4,8.8c0.1,3.4,0.4,6.8,0.8,10.3c0.4,3.5,1,6.8,1.8,10c0.8,3.1,2,5.8,3.6,8h-34.5
			c-1.9-5-3.1-10.9-3.5-17.8c-0.4-6.9-1.1-13.5-2-19.8c-1.2-8.2-3.7-14.2-7.5-18c-3.8-3.8-10-5.7-18.7-5.7h-34.5v61.2h-34.5V198
			H922.2z M909.9,268.8c7.9,0,13.8-1.8,17.8-5.3c4-3.5,5.9-9.2,5.9-17.1c0-7.6-2-13.1-5.9-16.6c-4-3.4-9.9-5.2-17.8-5.2h-37.8v44.1
			H909.9z"/>
	</g>
</g>
<g>
	<defs>
		<polygon id="SVGID_3_" points="0,371 1022,371 1030,0 		"/>
	</defs>
	<clipPath id="SVGID_4_">
		<use xlink:href="#SVGID_3_"  style="overflow:visible;"/>
	</clipPath>
	<g class="st2">
		<path class="st1" d="M143.9,15.1l58.6,156.7h-35.8l-11.9-34.9H96.3L84,171.8H49.3l59.3-156.7H143.9z M145.9,111.2l-19.8-57.5h-0.4
			l-20.4,57.5H145.9z"/>
		<path class="st1" d="M242.9,133.1c1.9,3.7,4.4,6.6,7.6,8.9c3.1,2.3,6.8,4,11.1,5c4.2,1.1,8.6,1.6,13.2,1.6c3.1,0,6.4-0.3,9.9-0.8
			c3.5-0.5,6.8-1.5,9.9-3c3.1-1.5,5.6-3.5,7.7-6c2-2.6,3.1-5.8,3.1-9.8c0-4.2-1.4-7.7-4.1-10.3c-2.7-2.6-6.3-4.8-10.6-6.6
			c-4.4-1.8-9.4-3.3-14.9-4.6c-5.6-1.3-11.2-2.8-16.9-4.4c-5.9-1.5-11.6-3.3-17.1-5.4c-5.6-2.1-10.5-4.9-14.9-8.2
			c-4.4-3.4-7.9-7.6-10.6-12.6c-2.7-5-4.1-11.2-4.1-18.3c0-8,1.7-15,5.2-21c3.4-5.9,7.9-10.9,13.5-14.8c5.6-3.9,11.9-6.9,18.9-8.8
			c7-1.9,14-2.9,21.1-2.9c8.2,0,16.1,0.9,23.6,2.7c7.5,1.8,14.2,4.8,20.1,8.9c5.9,4.1,10.5,9.3,13.9,15.7c3.4,6.4,5.2,14.1,5.2,23.2
			H300c-0.3-4.7-1.3-8.6-3-11.6c-1.7-3.1-3.9-5.5-6.7-7.2c-2.8-1.8-6-3-9.5-3.7c-3.6-0.7-7.5-1.1-11.7-1.1c-2.8,0-5.6,0.3-8.3,0.9
			c-2.8,0.6-5.3,1.6-7.6,3.1c-2.3,1.5-4.1,3.3-5.6,5.5c-1.5,2.2-2.2,5-2.2,8.3c0,3.1,0.6,5.6,1.8,7.5c1.2,1.9,3.5,3.7,6.9,5.3
			c3.4,1.6,8.2,3.2,14.3,4.8c6.1,1.6,14,3.7,23.8,6.1c2.9,0.6,7,1.6,12.2,3.2c5.2,1.5,10.4,4,15.5,7.4c5.1,3.4,9.5,7.9,13.3,13.5
			c3.7,5.6,5.6,12.8,5.6,21.6c0,7.2-1.4,13.8-4.2,20c-2.8,6.1-6.9,11.4-12.4,15.9c-5.5,4.5-12.3,7.9-20.4,10.4
			c-8.1,2.5-17.5,3.7-28.2,3.7c-8.6,0-17-1.1-25.1-3.2c-8.1-2.1-15.3-5.4-21.5-10c-6.2-4.5-11.2-10.3-14.8-17.3
			c-3.7-7-5.4-15.4-5.3-25h33.4C240.1,125,241,129.5,242.9,133.1z"/>
		<path class="st1" d="M432.5,15.1c9.8,0,18.1,1.4,25,4.3c6.9,2.9,12.5,6.6,16.8,11.3c4.3,4.7,7.5,10,9.4,16c2,6,3,12.2,3,18.7
			c0,6.3-1,12.5-3,18.5c-2,6.1-5.1,11.4-9.4,16.1c-4.3,4.7-9.9,8.5-16.8,11.3c-6.9,2.9-15.2,4.3-25,4.3h-36.2v56.2h-34.5V15.1H432.5
			z M423,88.8c4,0,7.8-0.3,11.4-0.9c3.7-0.6,6.9-1.7,9.7-3.4c2.8-1.7,5-4.1,6.7-7.1c1.7-3.1,2.5-7.1,2.5-12.1c0-5-0.8-9-2.5-12.1
			c-1.7-3.1-3.9-5.4-6.7-7.1c-2.8-1.7-6-2.8-9.7-3.4c-3.7-0.6-7.5-0.9-11.4-0.9h-26.8v47H423z"/>
		<path class="st1" d="M516.4,138v33.8h-34.5V138H516.4z"/>
		<path class="st1" d="M581.3,15.1l65.4,105.1h0.4V15.1h32.3v156.7H645L579.8,66.8h-0.4v104.9h-32.3V15.1H581.3z"/>
		<path class="st1" d="M828.3,15.1v29h-82.7v33.6h75.9v26.8h-75.9v38.4h84.5v29h-119V15.1H828.3z"/>
		<path class="st1" d="M843.9,44v-29h128.4v29h-47v127.7h-34.5V44H843.9z"/>
		<path class="st1" d="M94.3,198v60.1h63.4V198h34.5v156.7h-34.5v-67.6H94.3v67.6H59.9V198H94.3z"/>
		<path class="st1" d="M302.9,198l58.6,156.7h-35.8l-11.9-34.9h-58.6L243,354.7h-34.7L267.6,198H302.9z M304.9,294.1l-19.8-57.5
			h-0.4l-20.4,57.5H304.9z"/>
		<path class="st1" d="M470.4,239.8c-2.1-3.3-4.6-6.2-7.7-8.7c-3.1-2.5-6.5-4.4-10.4-5.8c-3.9-1.4-7.9-2.1-12.2-2.1
			c-7.8,0-14.3,1.5-19.8,4.5c-5.4,3-9.8,7-13.2,12.1c-3.4,5-5.8,10.8-7.4,17.2c-1.5,6.4-2.3,13.1-2.3,20c0,6.6,0.8,13,2.3,19.2
			c1.5,6.2,4,11.8,7.4,16.8c3.4,5,7.8,9,13.2,12c5.4,3,12,4.5,19.8,4.5c10.5,0,18.8-3.2,24.7-9.7c5.9-6.4,9.5-14.9,10.9-25.5H509
			c-0.9,9.8-3.1,18.7-6.8,26.6c-3.7,7.9-8.5,14.6-14.5,20.2c-6,5.6-13,9.8-21.1,12.7c-8,2.9-16.9,4.4-26.6,4.4
			c-12,0-22.8-2.1-32.4-6.3c-9.6-4.2-17.7-9.9-24.3-17.2c-6.6-7.3-11.6-15.9-15.1-25.8c-3.5-9.9-5.3-20.5-5.3-31.9
			c0-11.7,1.8-22.6,5.3-32.6c3.5-10,8.6-18.8,15.1-26.2c6.6-7.5,14.7-13.3,24.3-17.6c9.6-4.2,20.4-6.4,32.4-6.4
			c8.6,0,16.8,1.2,24.5,3.7c7.7,2.5,14.6,6.1,20.6,10.9c6.1,4.8,11.1,10.6,15,17.7c4,7,6.4,15.1,7.5,24.1h-33.4
			C473.8,246.7,472.5,243.1,470.4,239.8z"/>
		<path class="st1" d="M567.2,198v65l61.2-65h43l-61.2,61.9l67.2,94.8h-43.2l-47.2-70.5l-19.8,20v50.5h-34.5V198H567.2z"/>
		<path class="st1" d="M810.7,198v29h-82.7v33.6h75.9v26.8h-75.9v38.4h84.5v29h-119V198H810.7z"/>
		<path class="st1" d="M922.2,198c7,0,13.3,1.1,19,3.4c5.6,2.3,10.5,5.4,14.5,9.3c4,4,7.1,8.5,9.2,13.7c2.1,5.2,3.2,10.8,3.2,16.8
			c0,9.2-1.9,17.2-5.8,23.9c-3.9,6.7-10.2,11.9-19,15.4v0.4c4.2,1.2,7.8,3,10.5,5.4s5,5.3,6.8,8.6c1.8,3.3,3,6.9,3.8,10.9
			c0.8,4,1.4,7.9,1.6,11.9c0.1,2.5,0.3,5.4,0.4,8.8c0.1,3.4,0.4,6.8,0.8,10.3c0.4,3.5,1,6.8,1.8,10c0.8,3.1,2,5.8,3.6,8h-34.5
			c-1.9-5-3.1-10.9-3.5-17.8c-0.4-6.9-1.1-13.5-2-19.8c-1.2-8.2-3.7-14.2-7.5-18c-3.8-3.8-10-5.7-18.7-5.7h-34.5v61.2h-34.5V198
			H922.2z M909.9,268.8c7.9,0,13.8-1.8,17.8-5.3c4-3.5,5.9-9.2,5.9-17.1c0-7.6-2-13.1-5.9-16.6c-4-3.4-9.9-5.2-17.8-5.2h-37.8v44.1
			H909.9z"/>
	</g>
</g>
</svg>
