<svg id="YOO_Logo_Claim" data-name="YOO Logo+Claim" xmlns="http://www.w3.org/2000/svg" width="160mm" height="60mm" viewBox="0 0 453.54331 170.07874"><defs><style>.cls-1{fill:#fff;}.cls-2{fill:#0075bc;}</style></defs><title>YOO-Logo+Claim_RGB</title><rect id="Container" class="cls-1" width="453.54331" height="170.07874"/><g id="Logo"><path id="Claim" class="cls-2" d="M291.83008,77.77783a7.23966,7.23966,0,0,1-.49024,2.85254,4.77237,4.77237,0,0,1-1.3125,1.81983,5.02452,5.02452,0,0,1-1.9248.98,9.06518,9.06518,0,0,1-2.36279.29736,8.31175,8.31175,0,0,1-1.52246-.14014,9.07436,9.07436,0,0,1-1.34766-.34961l.24512-3.81494a4.29758,4.29758,0,0,0,1.29492.21,2.1502,2.1502,0,0,0,1.43506-.47265,1.888,1.888,0,0,0,.56006-1.52246V56.88281l5.42529-.24511Zm.27978-25.65527a2.10965,2.10965,0,0,1-.73486,1.76758,3.80858,3.80858,0,0,1-2.34521.57763,4.11567,4.11567,0,0,1-2.32764-.5249,2.06288,2.06288,0,0,1-.75244-1.82031q0-2.34448,3.08008-2.34473a3.64375,3.64375,0,0,1,2.34521.61231A2.13054,2.13054,0,0,1,292.10986,52.12256ZM315.69922,70.4624a7.56154,7.56154,0,0,1-2.1875,5.88037q-2.18775,1.99512-6.73779,1.99463-4.54982,0-6.73731-2.02978a7.57986,7.57986,0,0,1-2.1875-5.84522V56.74268h5.42481V70.35742q0,3.18531,3.5,3.18506,3.4995,0,3.5-3.18506V56.74268h5.42529Zm19.49512.84033a8.76784,8.76784,0,0,1-.45508,2.88721,5.52558,5.52558,0,0,1-1.43506,2.24024,6.60447,6.60447,0,0,1-2.51953,1.43505,11.81748,11.81748,0,0,1-3.67529.50733,17.11965,17.11965,0,0,1-3.62256-.36719,11.06883,11.06883,0,0,1-3.02735-1.10254l.56006-4.48a10.40816,10.40816,0,0,0,3.00977,1.13721,14.36746,14.36746,0,0,0,3.04492.36767,3.7095,3.7095,0,0,0,2.36279-.59521,1.90786,1.90786,0,0,0,.71729-1.54,1.48,1.48,0,0,0-.73487-1.3125,8.31927,8.31927,0,0,0-1.81982-.83984q-1.08544-.36768-2.36279-.77a9.6733,9.6733,0,0,1-2.36231-1.10254,6.07409,6.07409,0,0,1-1.82031-1.8374,5.43892,5.43892,0,0,1-.73486-2.99268,6.95526,6.95526,0,0,1,.49023-2.64258A5.33174,5.33174,0,0,1,322.29688,58.23a7.21853,7.21853,0,0,1,2.50244-1.34717,11.57517,11.57517,0,0,1,3.57031-.49023,16.62611,16.62611,0,0,1,3.1499.29736,14.49167,14.49167,0,0,1,2.87012.85791l-.45508,4.44483a12.98406,12.98406,0,0,0-2.90527-.82276,17.1,17.1,0,0,0-2.76465-.26221,3.61571,3.61571,0,0,0-2.04785.48975,1.502,1.502,0,0,0-.71729,1.29541,1.37773,1.37773,0,0,0,.71729,1.24219,8.4401,8.4401,0,0,0,1.80273.7876q1.084.35008,2.32764.73486a9.85457,9.85457,0,0,1,2.32715,1.06738,5.72723,5.72723,0,0,1,1.80273,1.82031A5.473,5.473,0,0,1,335.19434,71.30273Zm10.3955-10.5v10.8501a2.27344,2.27344,0,0,0,.62989,1.78467,2.76907,2.76907,0,0,0,1.88965.56006,6.433,6.433,0,0,0,.91015-.06983,3.79959,3.79959,0,0,0,.77051-.17529l.31445,3.95508a7.05834,7.05834,0,0,1-1.54.41992,11.94458,11.94458,0,0,1-2.09961.17529,6.09329,6.09329,0,0,1-4.74316-1.71533,6.8211,6.8211,0,0,1-1.55713-4.75976V60.80273h-2.37988v-4.06h2.625l.90967-4.79493,4.2705-.38525v5.18018h4.72461v4.06Zm-47.81347,52.583-.52491-1.81982-.105-.03516a6.01915,6.01915,0,0,1-2.34521,1.69727,8.69,8.69,0,0,1-3.32471.57763q-4.13085,0-6.125-2.69482-1.99512-2.69459-1.99511-8.43506,0-5.25,1.99511-8.085a6.90559,6.90559,0,0,1,6.05469-2.835,7.46442,7.46442,0,0,1,5.18018,1.9248l.06982-.06982-.06982-2.80029V86.15576l5.4248-.27978v27.50976ZM296.58643,98.231a3.64543,3.64543,0,0,0-1.41748-1.15528,4.8404,4.8404,0,0,0-2.15284-.45507,4.9991,4.9991,0,0,0-1.88965.31494,2.73985,2.73985,0,0,0-1.26025,1.05029,5.041,5.041,0,0,0-.69971,1.94238,17.86979,17.86979,0,0,0-.21,2.99268,20.73888,20.73888,0,0,0,.19239,3.09717,5.26028,5.26028,0,0,0,.665,1.99511,2.61475,2.61475,0,0,0,1.24219,1.06739,5.11276,5.11276,0,0,0,1.9253.31494,4.288,4.288,0,0,0,2.3623-.55957,3.77814,3.77814,0,0,0,1.24268-1.2251Zm16.835-10.64014a2.06739,2.06739,0,0,1-.73535,1.73242,3.80691,3.80691,0,0,1-2.34473.57764,4.3147,4.3147,0,0,1-2.34522-.50781,1.99556,1.99556,0,0,1-.77-1.80225q0-2.34449,3.11524-2.34521a3.72173,3.72173,0,0,1,2.34473.59521A2.11883,2.11883,0,0,1,313.42139,87.59082ZM307.541,113.38574V92.31592l5.56543-.24512v21.31494Zm18.82959-8.54a16.15447,16.15447,0,0,1-2.65967-.21,1.14714,1.14714,0,0,0-.73487,1.01514q0,.87525,1.39991.98l5.04.27978q3.709.21021,5.28466,1.5752a4.77844,4.77844,0,0,1,1.5752,3.81494,7.237,7.237,0,0,1-.54248,2.85254,5.26754,5.26754,0,0,1-1.73242,2.16992,8.55069,8.55069,0,0,1-3.02784,1.36524,17.99314,17.99314,0,0,1-4.42724.47216,15.79729,15.79729,0,0,1-3.90235-.41992,7.99648,7.99648,0,0,1-2.67773-1.17236,4.69289,4.69289,0,0,1-1.54-1.76758,5.07949,5.07949,0,0,1-.48974-2.24023,4.26676,4.26676,0,0,1,.41992-1.83741,4.82269,4.82269,0,0,1,1.22509-1.59228,3.98547,3.98547,0,0,1-1.15527-1.26025,3.58273,3.58273,0,0,1-.45508-1.855,3.77657,3.77657,0,0,1,.6128-2.02978,4.44443,4.44443,0,0,1,1.94238-1.60986,5.65357,5.65357,0,0,1-1.68018-1.97754,6.50538,6.50538,0,0,1-.62988-3.02783,7.69829,7.69829,0,0,1,.4375-2.64258,5.07657,5.07657,0,0,1,1.41748-2.08252,6.85471,6.85471,0,0,1,2.52-1.36475,12.45959,12.45959,0,0,1,3.74512-.49023,16.04943,16.04943,0,0,1,2.76513.24511,7.39807,7.39807,0,0,1,2.51954.91016l3.60546-1.15527,1.11963,2.59033-2.23974,1.75a7.10864,7.10864,0,0,1,.31494,2.23975,6.12084,6.12084,0,0,1-1.87256,4.77783Q330.67553,104.84619,326.37061,104.8457Zm-2.94,6.29981a2.33259,2.33259,0,0,0-.875,1.71533,1.81346,1.81346,0,0,0,.89258,1.6626,6.0795,6.0795,0,0,0,2.99268.54248,17.81456,17.81456,0,0,0,2.46728-.14014,5.58438,5.58438,0,0,0,1.52246-.40234,1.71066,1.71066,0,0,0,.77-.6128,1.53321,1.53321,0,0,0,.21-.80468,1.21983,1.21983,0,0,0-.57714-1.10254,5.86954,5.86954,0,0,0-2.3628-.50781Zm2.9751-15.25977a3.13781,3.13781,0,0,0-2.20508.61231,2.7207,2.7207,0,0,0-.62988,2.01269,2.40109,2.40109,0,0,0,.73486,2.06494,3.30456,3.30456,0,0,0,1.96.52491,3.46325,3.46325,0,0,0,2.32764-.57715,2.7543,2.7543,0,0,0,.61279-2.04785,2.59506,2.59506,0,0,0-.64794-2.02979A3.28655,3.28655,0,0,0,326.40576,95.88574ZM346.04,87.59082a2.06951,2.06951,0,0,1-.73438,1.73242,3.81015,3.81015,0,0,1-2.3457.57764,4.31508,4.31508,0,0,1-2.34473-.50781,1.99556,1.99556,0,0,1-.77-1.80225q0-2.34449,3.11475-2.34521a3.72488,3.72488,0,0,1,2.3457.59521A2.121,2.121,0,0,1,346.04,87.59082Zm-5.87988,25.79492V92.31592l5.56543-.24512v21.31494Zm17.39453-17.1499v10.8501a2.27349,2.27349,0,0,0,.62988,1.78467,2.76913,2.76913,0,0,0,1.88965.56005,6.43453,6.43453,0,0,0,.91016-.06982,3.80015,3.80015,0,0,0,.7705-.17529l.31446,3.95507a7.05787,7.05787,0,0,1-1.54.41993,11.94466,11.94466,0,0,1-2.09961.17529,6.09334,6.09334,0,0,1-4.74317-1.71533,6.821,6.821,0,0,1-1.55664-4.75977V96.23584H349.749V92.17578h2.625l.91016-4.79492,4.27051-.38525v5.18017h4.72461v4.06006ZM377.12012,111.356l-.10547-.03516a6.53847,6.53847,0,0,1-2.44922,1.78516,8.27673,8.27673,0,0,1-3.29.62988,6.58908,6.58908,0,0,1-4.79492-1.73242q-1.78565-1.73292-1.78516-5.30274a6.9825,6.9825,0,0,1,.50684-2.69482,5.63952,5.63952,0,0,1,1.4707-2.08252,6.96087,6.96087,0,0,1,2.36231-1.34766,9.72592,9.72592,0,0,1,3.21972-.48974,14.42063,14.42063,0,0,1,2.20508.15722,11.4288,11.4288,0,0,1,1.85547.4375V99.45557a2.89331,2.89331,0,0,0-.91016-2.36231,4.95812,4.95812,0,0,0-3.11523-.75244,14.82121,14.82121,0,0,0-3.0625.27979,16.83179,16.83179,0,0,0-2.78223.875l-.45508-4.33985a16.35366,16.35366,0,0,1,3.41211-1.0498,20.28062,20.28062,0,0,1,3.86817-.3501,13.31328,13.31328,0,0,1,3.9541.50732,6.0055,6.0055,0,0,1,2.6084,1.55762,6.10811,6.10811,0,0,1,1.43457,2.66016,14.53607,14.53607,0,0,1,.4375,3.77978v13.125H377.54Zm-.80469-7.07032a5.28361,5.28361,0,0,0-1.15527-.31494,10.6048,10.6048,0,0,0-1.85547-.14013q-3.53467,0-3.53418,2.80029a2.53582,2.53582,0,0,0,.83984,2.1875,3.59063,3.59063,0,0,0,2.16992.6123,4.52805,4.52805,0,0,0,1.33008-.19238,3.83786,3.83786,0,0,0,1.12012-.54248,3.14633,3.14633,0,0,0,.78711-.7876,1.67544,1.67544,0,0,0,.29785-.9624Zm10.39453,9.1001V86.12061l5.49512-.24463v27.50976Zm16.37891-2.625a3.24885,3.24885,0,0,1-.71778,2.24024,3.07984,3.07984,0,0,1-2.39746.80468,3.495,3.495,0,0,1-2.415-.68261,3.97082,3.97082,0,0,1,0-4.60254,3.22932,3.22932,0,0,1,2.415-.76953,2.66238,2.66238,0,0,1,3.11524,3.00976Z"/><rect id="I" class="cls-2" x="253.34646" y="42.51969" width="3.54331" height="85.03937"/><path id="YOO" class="cls-2" d="M214.87019,86.56137c0,4.958-.752,7.586-2.28,9.924a8.27289,8.27289,0,0,1-2.384,2.382c-2.336,1.528-4.966,2.28-9.922,2.28h-3.718c-4.956,0-7.586-.752-9.922-2.28a8.2981,8.2981,0,0,1-2.384-2.382c-1.528-2.338-2.278-4.966-2.278-9.924v-3.046c0-4.956.75-7.586,2.278-9.922a8.27324,8.27324,0,0,1,2.384-2.382c2.336-1.53,4.966-2.282,9.922-2.282h3.718c4.956,0,7.586.752,9.922,2.282a8.24819,8.24819,0,0,1,2.384,2.382c1.528,2.336,2.28,4.966,2.28,9.922Zm12.256.086v-3.216c0-6.536-1.086-10.964-3.124-14.776a21.57562,21.57562,0,0,0-8.838-8.838c-3.812-2.04-8.24-3.124-14.776-3.124h-3.926c-6.534,0-10.964,1.084-14.774,3.124a21.55682,21.55682,0,0,0-8.84,8.838c-2.038,3.812-3.124,8.24-3.124,14.776v3.216c0,7.64,1.482,12.4,4.238,16.66a19.73007,19.73007,0,0,0,5.84,5.84c4.26,2.756,9.022,4.238,16.66,4.238h3.926c7.64,0,12.4-1.482,16.66-4.238a19.72992,19.72992,0,0,0,5.84-5.84c2.754-4.26,4.238-9.02,4.238-16.66m-76.03554-.086c0,4.958-.752,7.586-2.28,9.924a8.27289,8.27289,0,0,1-2.384,2.382c-2.336,1.528-4.966,2.28-9.922,2.28h-3.718c-4.956,0-7.586-.752-9.922-2.28a8.29823,8.29823,0,0,1-2.384-2.382c-1.528-2.338-2.278-4.966-2.278-9.924v-3.046c0-4.956.75-7.586,2.278-9.922a8.27337,8.27337,0,0,1,2.384-2.382c2.336-1.53,4.966-2.282,9.922-2.282h3.718c4.956,0,7.586.752,9.922,2.282a8.24819,8.24819,0,0,1,2.384,2.382c1.528,2.336,2.28,4.966,2.28,9.922Zm12.256.086v-3.216c0-6.536-1.086-10.964-3.124-14.776a21.57571,21.57571,0,0,0-8.838-8.838c-3.812-2.04-8.24-3.124-14.776-3.124h-3.926c-6.534,0-10.964,1.084-14.774,3.124a21.55682,21.55682,0,0,0-8.84,8.838c-2.038,3.812-3.124,8.24-3.124,14.776v3.216c0,7.64,1.482,12.4,4.238,16.66a19.73007,19.73007,0,0,0,5.84,5.84c4.26,2.756,9.022,4.238,16.66,4.238h3.926c7.64,0,12.4-1.482,16.66-4.238a19.73007,19.73007,0,0,0,5.84-5.84c2.754-4.26,4.238-9.02,4.238-16.66m-95.173-10.21845,4.574-4.574-13.266-13.266a6.47,6.47,0,1,0-9.15,9.15l8.692,8.69a6.47132,6.47132,0,0,0,9.15,0m35.67-8.68a6.47,6.47,0,1,0-9.15-9.15l-21.904,21.862a6.47,6.47,0,0,0-1.894,4.574v21.88092a6.469,6.469,0,1,0,12.938,0V87.71491Z"/></g></svg>