<?xml version="1.0" standalone="no"?>
<!DOCTYPE svg PUBLIC "-//W3C//DTD SVG 20010904//EN"
 "http://www.w3.org/TR/2001/REC-SVG-20010904/DTD/svg10.dtd">
<svg version="1.0" xmlns="http://www.w3.org/2000/svg"
 width="450.000000pt" height="450.000000pt" viewBox="0 0 450.000000 450.000000"
 preserveAspectRatio="xMidYMid meet">
<metadata>
Created by potrace 1.11, written by Peter Selinger 2001-2013
</metadata>
<g transform="translate(0.000000,450.000000) scale(0.100000,-0.100000)"
fill="#000000" stroke="none">
<path d="M2026 4489 c-89 -10 -129 -16 -196 -29 -30 -6 -67 -13 -82 -15 -54
-10 -265 -77 -348 -112 -636 -263 -1113 -791 -1309 -1449 -16 -56 -34 -126
-40 -155 -6 -30 -13 -65 -16 -79 -5 -26 -10 -61 -24 -175 -12 -92 -6 -431 8
-520 6 -38 14 -86 17 -105 30 -191 111 -426 217 -635 48 -94 183 -306 224
-350 10 -11 36 -43 58 -70 60 -75 230 -241 310 -303 237 -186 491 -317 772
-401 55 -16 113 -32 129 -35 242 -46 263 -48 464 -50 205 -1 307 5 410 24 87
16 101 19 118 24 9 3 33 8 52 11 71 12 305 96 423 153 168 80 229 118 395 241
110 82 136 105 249 220 174 176 294 346 408 576 64 128 153 365 169 446 2 13
13 69 25 124 31 153 39 253 36 460 -3 202 -5 219 -37 390 -19 102 -76 313 -98
360 -5 11 -23 54 -40 95 -132 319 -381 649 -655 869 -310 249 -705 422 -1085
477 -25 3 -56 8 -70 10 -48 9 -416 11 -484 3z"/>
</g>
</svg>
